<svg width="94" height="113" viewBox="0 0 94 113" fill="none" xmlns="http://www.w3.org/2000/svg">
<g clip-path="url(#clip0_3_94)">
<path d="M20.9019 108.432C20.9019 110.837 19.3847 112.287 16.8005 112.287H14.5062V104.54H16.8005C19.3847 104.54 20.9019 106.002 20.9019 108.432ZM16.8005 111.645C18.9962 111.645 20.1125 110.424 20.1125 108.432C20.1125 106.44 18.9962 105.188 16.8005 105.188H15.2833V111.645H16.8005Z" fill="white"/>
<path d="M26.8167 110.449H23.295L22.6166 112.287H21.7963L24.621 104.639H25.4968L28.3092 112.287H27.4889L26.8105 110.449H26.8167ZM25.0527 105.62L23.5232 109.807H26.5823L25.0527 105.62Z" fill="white"/>
<path d="M28.9999 104.547H34.0882V105.188H31.9357V112.293H31.1586V105.188H28.9999V104.547Z" fill="white"/>
<path d="M39.7994 110.449H36.2777L35.5993 112.287H34.779L37.6037 104.639H38.4795L41.2919 112.287H40.4717L39.7932 110.449H39.7994ZM38.0355 105.62L36.5059 109.807H39.565L38.0355 105.62Z" fill="white"/>
<path d="M47.9159 112.367C46.3617 112.367 45.344 111.479 45.3008 110.295H46.1211C46.189 110.936 46.6639 111.713 47.9159 111.713C48.9891 111.713 49.6243 111.084 49.6243 110.282C49.6243 108 45.3687 109.437 45.3687 106.526C45.3687 105.33 46.3555 104.454 47.8481 104.454C49.3406 104.454 50.2102 105.274 50.3398 106.335H49.4948C49.4084 105.792 48.8842 105.126 47.811 105.114C46.9044 105.102 46.152 105.601 46.152 106.502C46.152 108.74 50.4076 107.365 50.4076 110.245C50.4076 111.3 49.5565 112.361 47.9159 112.361V112.367Z" fill="white"/>
<path d="M51.9063 104.645H52.7266L55.687 111.269L58.6475 104.645H59.4801V112.293H58.703V106.187L55.9769 112.293H55.4095L52.6834 106.212V112.293H51.9063V104.645Z" fill="white"/>
<path d="M65.7217 110.449H62.2L61.5216 112.287H60.7013L63.526 104.639H64.4018L67.2143 112.287H66.394L65.7155 110.449H65.7217ZM63.9578 105.62L62.4282 109.807H65.4873L63.9578 105.62Z" fill="white"/>
<path d="M70.7853 104.547C72.58 104.547 73.425 105.521 73.425 106.798C73.425 107.859 72.8267 108.759 71.5192 109.006L73.5113 112.299H72.58L70.6619 109.061H69.231V112.299H68.4539V104.553H70.7791L70.7853 104.547ZM70.7853 105.2H69.231V108.426H70.7914C72.0558 108.426 72.617 107.741 72.617 106.798C72.617 105.854 72.0866 105.2 70.7791 105.2H70.7853Z" fill="white"/>
<path d="M74.4056 104.547H79.4939V105.188H77.3414V112.293H76.5643V105.188H74.4056V104.547Z" fill="white"/>
<path d="M6.1861 32.4538C8.46489 32.4538 10.3122 30.6065 10.3122 28.3277C10.3122 26.0489 8.46489 24.2016 6.1861 24.2016C3.90732 24.2016 2.06 26.0489 2.06 28.3277C2.06 30.6065 3.90732 32.4538 6.1861 32.4538Z" fill="white"/>
<path d="M4.12611 54.6632C6.40489 54.6632 8.25221 52.8159 8.25221 50.5371C8.25221 48.2583 6.40489 46.411 4.12611 46.411C1.84732 46.411 0 48.2583 0 50.5371C0 52.8159 1.84732 54.6632 4.12611 54.6632Z" fill="white"/>
<path d="M46.9545 12.8313C50.4487 12.0065 52.6127 8.50539 51.788 5.0112C50.9633 1.51701 47.4622 -0.647033 43.968 0.177671C40.4738 1.00237 38.3097 4.50353 39.1344 7.99772C39.9591 11.4919 43.4603 13.656 46.9545 12.8313Z" fill="white"/>
<path d="M65.4661 24.6584C69.6016 23.9871 72.41 20.0904 71.7387 15.9548C71.0674 11.8192 67.1707 9.01089 63.0351 9.68218C58.8995 10.3535 56.0912 14.2502 56.7625 18.3858C57.4338 22.5213 61.3305 25.3297 65.4661 24.6584Z" fill="white"/>
<path d="M84.872 33.3172C88.7756 33.3172 91.94 30.1528 91.94 26.2492C91.94 22.3456 88.7756 19.1812 84.872 19.1812C80.9684 19.1812 77.804 22.3456 77.804 26.2492C77.804 30.1528 80.9684 33.3172 84.872 33.3172Z" fill="white"/>
<path d="M84.3292 81.0851C88.5325 81.0851 91.94 77.6776 91.94 73.4743C91.94 69.271 88.5325 65.8635 84.3292 65.8635C80.1259 65.8635 76.7184 69.271 76.7184 73.4743C76.7184 77.6776 80.1259 81.0851 84.3292 81.0851Z" fill="white"/>
<path d="M71.26 86.5059C72.8633 82.6351 71.0252 78.1975 67.1544 76.5942C63.2836 74.9908 58.846 76.829 57.2427 80.6998C55.6394 84.5705 57.4775 89.0082 61.3483 90.6115C65.219 92.2148 69.6567 90.3767 71.26 86.5059Z" fill="white"/>
<path d="M46.9537 35.0569C50.4479 34.2322 52.6119 30.731 51.7872 27.2368C50.9625 23.7426 47.4614 21.5786 43.9672 22.4033C40.473 23.228 38.3089 26.7291 39.1336 30.2233C39.9583 33.7175 43.4595 35.8816 46.9537 35.0569Z" fill="white"/>
<path d="M51.4658 74.9216C52.8397 71.6047 51.2646 67.8021 47.9476 66.4282C44.6307 65.0542 40.8281 66.6294 39.4542 69.9463C38.0803 73.2632 39.6554 77.0658 42.9723 78.4397C46.2892 79.8136 50.0919 78.2385 51.4658 74.9216Z" fill="white"/>
<path d="M51.4637 97.1508C52.8376 93.8338 51.2625 90.0312 47.9456 88.6573C44.6287 87.2834 40.826 88.8585 39.4521 92.1754C38.0782 95.4923 39.6533 99.295 42.9702 100.669C46.2871 102.043 50.0898 100.468 51.4637 97.1508Z" fill="white"/>
<path d="M26.7905 88.4374C29.4635 88.0035 31.2787 85.4849 30.8448 82.8119C30.4109 80.1389 27.8923 78.3238 25.2193 78.7577C22.5463 79.1915 20.7311 81.7102 21.165 84.3832C21.5989 87.0561 24.1175 88.8713 26.7905 88.4374Z" fill="white"/>
<path d="M30.5297 18.3978C31.566 15.8959 30.3779 13.0277 27.8761 11.9914C25.3742 10.9551 22.506 12.1432 21.4697 14.645C20.4334 17.1468 21.6215 20.0151 24.1233 21.0514C26.6252 22.0877 29.4934 20.8996 30.5297 18.3978Z" fill="white"/>
<path d="M29.4694 35.9248C31.3842 34.0099 31.3842 30.9054 29.4694 28.9906C27.5545 27.0757 24.45 27.0757 22.5352 28.9906C20.6203 30.9054 20.6203 34.0099 22.5352 35.9248C24.45 37.8396 27.5545 37.8396 29.4694 35.9248Z" fill="white"/>
<path d="M27.3224 73.2153C30.0303 73.2153 32.2256 71.02 32.2256 68.312C32.2256 65.6041 30.0303 63.4088 27.3224 63.4088C24.6144 63.4088 22.4191 65.6041 22.4191 68.312C22.4191 71.02 24.6144 73.2153 27.3224 73.2153Z" fill="white"/>
<path d="M6.1861 76.0708C8.46489 76.0708 10.3122 74.2235 10.3122 71.9447C10.3122 69.666 8.46489 67.8186 6.1861 67.8186C3.90732 67.8186 2.06 69.666 2.06 71.9447C2.06 74.2235 3.90732 76.0708 6.1861 76.0708Z" fill="white"/>
<path d="M63.7912 35.8028C66.07 35.8028 67.9173 33.9554 67.9173 31.6766C67.9173 29.3979 66.07 27.5505 63.7912 27.5505C61.5124 27.5505 59.6651 29.3979 59.6651 31.6766C59.6651 33.9554 61.5124 35.8028 63.7912 35.8028Z" fill="white"/>
<path d="M62.1137 73.1968C64.3924 73.1968 66.2398 71.3494 66.2398 69.0707C66.2398 66.7919 64.3924 64.9445 62.1137 64.9445C59.8349 64.9445 57.9875 66.7919 57.9875 69.0707C57.9875 71.3494 59.8349 73.1968 62.1137 73.1968Z" fill="white"/>
<path d="M21.7222 39.0099C15.3696 39.0099 10.2197 44.1598 10.2197 50.5124C10.2197 56.865 15.3696 62.015 21.7222 62.015C28.0748 62.015 33.2247 56.865 33.2247 50.5124C33.2247 44.1598 28.0748 39.0099 21.7222 39.0099ZM21.7777 55.3848H17.5776V44.1783H21.7777C25.3549 44.1783 27.6492 46.4418 27.6492 49.7785C27.6492 53.1152 25.3487 55.3787 21.7777 55.3787V55.3848Z" fill="white"/>
<path d="M21.5988 46.5097H20.3036V53.0227H21.5988C23.6588 53.0227 24.8677 51.8385 24.8677 49.7847C24.8677 47.7309 23.6526 46.5097 21.5988 46.5097Z" fill="white"/>
<path d="M47.6075 36.8574C40.0646 36.8574 33.9525 42.9695 33.9525 50.5124C33.9525 58.0554 40.0646 64.1674 47.6075 64.1674C55.1505 64.1674 61.2625 58.0554 61.2625 50.5124C61.2625 42.9695 55.1505 36.8574 47.6075 36.8574ZM48.2736 59.1039C44.3449 59.1039 41.2796 57.1549 41.1439 53.4605H45.8806C46.0101 54.8667 46.8921 55.539 48.1441 55.539C49.3961 55.539 50.2781 54.8914 50.2781 53.8244C50.2781 50.4446 41.1501 52.264 41.1994 45.7881C41.1994 42.3281 44.0365 40.4038 47.8604 40.4038C51.6843 40.4038 54.5214 42.3836 54.7002 45.8683H49.8895C49.8093 44.6964 48.9767 43.9933 47.7802 43.9686C46.7132 43.944 45.9053 44.4867 45.9053 45.6339C45.9053 48.8102 54.9284 47.3793 54.9284 53.4914C54.9284 56.5628 52.5354 59.11 48.2675 59.11L48.2736 59.1039Z" fill="white"/>
<path d="M77.8595 33.5701C68.9473 33.5701 61.7251 40.7923 61.7251 49.7045C61.7251 58.6166 68.9473 65.8388 77.8595 65.8388C86.7716 65.8388 93.9938 58.6166 93.9938 49.7045C93.9938 40.7923 86.7716 33.5701 77.8595 33.5701ZM78.0877 55.5945C79.9626 55.5945 81.4922 54.731 82.3248 52.998H87.7461C86.5928 57.3831 82.9601 60.0598 78.1432 60.0598C72.173 60.0598 67.9667 55.8227 67.9667 49.7662C67.9667 43.7096 72.1791 39.4416 78.1432 39.4416C82.9601 39.4416 86.5928 42.1492 87.7461 46.5343H82.3248C81.486 44.8074 79.9626 43.9378 78.0877 43.9378C75.0594 43.9378 72.9871 46.189 72.9871 49.76C72.9871 53.331 75.0656 55.5822 78.0877 55.5822V55.5945Z" fill="white"/>
</g>
<defs>
<clipPath id="clip0_3_94">
<rect width="94" height="112.367" fill="white"/>
</clipPath>
</defs>
</svg>
