<?xml version="1.0" encoding="UTF-8"?>
<svg id="Calque_1" data-name="Calque 1" xmlns="http://www.w3.org/2000/svg" viewBox="0 0 152.41 182.19">
  <defs>
    <style>
      .cls-1 {
        fill: #fff;
        stroke-width: 0px;
      }
    </style>
  </defs>
  <g>
    <path class="cls-1" d="m33.89,175.81c0,3.9-2.46,6.25-6.65,6.25h-3.72v-12.56h3.72c4.19,0,6.65,2.37,6.65,6.31Zm-6.65,5.21c3.56,0,5.37-1.98,5.37-5.21s-1.81-5.26-5.37-5.26h-2.46v10.47h2.46Z"/>
    <path class="cls-1" d="m43.48,179.08h-5.71l-1.1,2.98h-1.33l4.58-12.4h1.42l4.56,12.4h-1.33l-1.1-2.98Zm-2.86-7.83l-2.48,6.79h4.96l-2.48-6.79Z"/>
    <path class="cls-1" d="m47.02,169.51h8.25v1.04h-3.49v11.52h-1.26v-11.52h-3.5v-1.04Z"/>
    <path class="cls-1" d="m64.53,179.08h-5.71l-1.1,2.98h-1.33l4.58-12.4h1.42l4.56,12.4h-1.33l-1.1-2.98Zm-2.86-7.83l-2.48,6.79h4.96l-2.48-6.79Z"/>
    <path class="cls-1" d="m77.69,182.19c-2.52,0-4.17-1.44-4.24-3.36h1.33c.11,1.04.88,2.3,2.91,2.3,1.74,0,2.77-1.02,2.77-2.32,0-3.7-6.9-1.37-6.9-6.09,0-1.94,1.6-3.36,4.02-3.36s3.83,1.33,4.04,3.05h-1.37c-.14-.88-.99-1.96-2.73-1.98-1.47-.02-2.69.79-2.69,2.25,0,3.63,6.9,1.4,6.9,6.07,0,1.71-1.38,3.43-4.04,3.43Z"/>
    <path class="cls-1" d="m84.16,169.67h1.33l4.8,10.74,4.8-10.74h1.35v12.4h-1.26v-9.9l-4.42,9.9h-.92l-4.42-9.86v9.86h-1.26v-12.4Z"/>
    <path class="cls-1" d="m106.56,179.08h-5.71l-1.1,2.98h-1.33l4.58-12.4h1.42l4.56,12.4h-1.33l-1.1-2.98Zm-2.86-7.83l-2.48,6.79h4.96l-2.48-6.79Z"/>
    <path class="cls-1" d="m114.77,169.51c2.91,0,4.28,1.58,4.28,3.65,0,1.72-.97,3.18-3.09,3.58l3.23,5.34h-1.51l-3.11-5.25h-2.32v5.25h-1.26v-12.56h3.77Zm0,1.06h-2.52v5.23h2.53c2.05,0,2.96-1.11,2.96-2.64s-.86-2.59-2.98-2.59Z"/>
    <path class="cls-1" d="m120.64,169.51h8.25v1.04h-3.49v11.52h-1.26v-11.52h-3.5v-1.04Z"/>
  </g>
  <circle class="cls-1" cx="10.03" cy="45.93" r="6.69"/>
  <circle class="cls-1" cx="6.69" cy="81.94" r="6.69"/>
  <circle class="cls-1" cx="73.71" cy="10.54" r="10.54" transform="translate(-.45 17.22) rotate(-13.28)"/>
  <circle class="cls-1" cx="104.17" cy="27.84" r="12.3" transform="translate(-3.11 17.05) rotate(-9.22)"/>
  <circle class="cls-1" cx="137.61" cy="42.56" r="11.46"/>
  <circle class="cls-1" cx="136.73" cy="119.13" r="12.34"/>
  <circle class="cls-1" cx="104.17" cy="135.55" r="12.3" transform="translate(-60.92 179.92) rotate(-67.5)"/>
  <circle class="cls-1" cx="73.71" cy="46.58" r="10.54" transform="translate(-8.73 18.18) rotate(-13.28)"/>
  <circle class="cls-1" cx="73.71" cy="117.44" r="10.54" transform="translate(-63 140.6) rotate(-67.5)"/>
  <circle class="cls-1" cx="73.71" cy="153.48" r="10.54" transform="translate(-96.3 162.85) rotate(-67.5)"/>
  <circle class="cls-1" cx="42.16" cy="135.55" r="7.95" transform="translate(-21.17 8.5) rotate(-9.22)"/>
  <circle class="cls-1" cx="42.16" cy="26.78" r="7.95" transform="translate(1.28 55.49) rotate(-67.5)"/>
  <circle class="cls-1" cx="42.16" cy="52.62" r="7.95" transform="translate(-24.86 45.23) rotate(-45)"/>
  <circle class="cls-1" cx="44.3" cy="110.76" r="7.95"/>
  <circle class="cls-1" cx="10.03" cy="116.65" r="6.69"/>
  <circle class="cls-1" cx="103.43" cy="51.36" r="6.69"/>
  <circle class="cls-1" cx="100.71" cy="111.99" r="6.69"/>
  <g>
    <path class="cls-1" d="m35.22,63.25c-10.3,0-18.65,8.35-18.65,18.65s8.35,18.65,18.65,18.65,18.65-8.35,18.65-18.65-8.35-18.65-18.65-18.65Zm.09,26.55h-6.81v-18.17h6.81c5.8,0,9.52,3.67,9.52,9.08s-3.73,9.08-9.52,9.08Z"/>
    <path class="cls-1" d="m35.02,75.41h-2.1v10.56h2.1c3.34,0,5.3-1.92,5.3-5.25s-1.97-5.31-5.3-5.31Z"/>
  </g>
  <path class="cls-1" d="m77.19,59.76c-12.23,0-22.14,9.91-22.14,22.14s9.91,22.14,22.14,22.14,22.14-9.91,22.14-22.14-9.91-22.14-22.14-22.14Zm1.08,36.07c-6.37,0-11.34-3.16-11.56-9.15h7.68c.21,2.28,1.64,3.37,3.67,3.37s3.46-1.05,3.46-2.78c0-5.48-14.8-2.53-14.72-13.03,0-5.61,4.6-8.73,10.8-8.73s10.8,3.21,11.09,8.86h-7.8c-.13-1.9-1.48-3.04-3.42-3.08-1.73-.04-3.04.84-3.04,2.7,0,5.15,14.63,2.83,14.63,12.74,0,4.98-3.88,9.11-10.8,9.11Z"/>
  <path class="cls-1" d="m126.24,54.43c-14.45,0-26.16,11.71-26.16,26.16s11.71,26.16,26.16,26.16,26.16-11.71,26.16-26.16-11.71-26.16-26.16-26.16Zm.37,35.71c3.04,0,5.52-1.4,6.87-4.21h8.79c-1.87,7.11-7.76,11.45-15.57,11.45-9.68,0-16.5-6.87-16.5-16.69s6.83-16.74,16.5-16.74c7.81,0,13.7,4.39,15.57,11.5h-8.79c-1.36-2.8-3.83-4.21-6.87-4.21-4.91,0-8.27,3.65-8.27,9.44s3.37,9.44,8.27,9.44Z"/>
</svg>