<svg version="1.1" id="Art" xmlns="http://www.w3.org/2000/svg" xmlns:xlink="http://www.w3.org/1999/xlink" x="0px" y="0px"
	 viewBox="0 0 144.3 33.6" enable-background="new 0 0 144.3 33.6" xml:space="preserve">
<g id="Logo">
	<g id="Globe">
		<path fill="#0092AC" d="M10.4,24.8c0.3,0.3,0.7,0.5,1.1,0.8l1.9-3.2c-1.6-1-3-2.1-4.1-3.4C8.7,21.5,9.1,23.7,10.4,24.8z"/>
		<path fill="#0092AC" d="M12.9,26.2L12.9,26.2L12.9,26.2c0.1,0.1,0.2,0.1,0.2,0.1h0.1c1.6,0.5,3.6-0.2,5.5-2
			c-1.6-0.3-3.3-0.9-5-1.9l-1.9,3.2C12.2,25.9,12.5,26.1,12.9,26.2z"/>
		<path fill="#0092AC" d="M9,18.5C7.8,17,7.1,15.4,7,14c-0.9,3.2-0.2,6.8,2,9.4C8.5,22,8.5,20.3,9,18.5z"/>
		<path fill="#0092AC" d="M21.5,21.4c-0.6,1-1.2,1.9-1.9,2.7c2.4,0.3,4.4-0.2,5.5-1.3c0.2-0.3,0.4-0.6,0.5-0.8
			c0.7-1.2,1.1-2.4,1.3-3.7c-0.4,0.3-1.1,0.5-1.9,0.5c-0.6,0-1.3-0.1-2.1-0.3C22.5,19.5,22.1,20.5,21.5,21.4z"/>
		<path fill="#0092AC" d="M19.2,24.4c-1.3,1.3-2.8,2.2-4.2,2.4c3.3,0.6,6.7-0.6,9.1-3C22.8,24.5,21.1,24.7,19.2,24.4z"/>
		<path fill="#0092AC" d="M23,8.7c-0.1-0.1-0.2-0.1-0.4-0.2c1.5,2.1,1.7,5.8,0.4,9.6c2,0.5,3.5,0.3,3.9-0.5c0.1-1.1,0-2.3-0.3-3.4
			C26.1,11.9,24.8,10,23,8.7z"/>
		<path fill="#0092AC" d="M12.3,12.3c-1.3-1.4-1.9-2.6-1.8-3.6c-1,0.8-1.9,1.8-2.6,2.9c-0.2,0.3-0.3,0.5-0.4,0.8
			C7.1,14,7.7,16.1,9.1,18c0.3-1,0.8-2,1.3-3C11,14.1,11.6,13.2,12.3,12.3z"/>
		<path fill="#0092AC" d="M21.1,7.6c-0.1-0.1-0.2-0.1-0.4-0.2c-1.3-0.5-2.6-0.8-4-0.8c-2.1,0-4,0.6-5.8,1.8
			c-0.4,0.8,0.2,2.1,1.6,3.6C15.3,9.1,18.6,7.4,21.1,7.6z"/>
		<path fill="#0092AC" d="M9.4,18.4c1.1,1.3,2.5,2.5,4.2,3.5l3.4-6c-1.7-1-3.3-2.2-4.4-3.3c-0.7,0.8-1.3,1.7-1.8,2.6
			C10.2,16.3,9.7,17.3,9.4,18.4z"/>
		<path fill="#0092AC" d="M22,8.3l-4.3,7.5c1.7,1,3.4,1.7,5,2.1C23.9,14,23.6,10.2,22,8.3z"/>
		<path fill="#0092AC" d="M22.5,18.3c-1.6-0.4-3.3-1.2-5.1-2.1l-3.4,6c1.7,0.9,3.5,1.6,5.1,1.8c0.8-0.8,1.5-1.7,2.1-2.8
			C21.7,20.3,22.1,19.3,22.5,18.3z"/>
		<path fill="#0092AC" d="M12.9,12.3c1.2,1.2,2.6,2.3,4.3,3.3l4.3-7.5C19.1,7.6,15.6,9.3,12.9,12.3z"/>
		<path fill="#0092AC" d="M5.5,7.5C9.1,1.3,16.3-0.8,23,1.2C15.4-1.9,6.5,1.1,2.3,8.4c-4.6,8-1.9,18.2,6,22.9l2.4-4.2
			C3.9,23.1,1.6,14.4,5.5,7.5z"/>
		<path fill="#0092AC" d="M25.3,2.3l-2.4,4.2c6.8,4,9.1,12.8,5.1,19.6c-3.6,6.2-10.7,8.3-17.5,6.3c7.6,3.1,16.6,0.1,20.8-7.2
			C36,17.2,33.3,7,25.3,2.3z"/>
	</g>
	<g id="Wordmark">
		<path fill="#0092AC" d="M45,15.8c-1.5-0.6-2.4-1.1-2.4-2.2s0.8-1.7,2.1-1.7c1,0,2,0.3,2.8,0.9l0,0l1-1.5l0,0
			c-0.5-0.4-1.7-1.2-3.8-1.2c-2.4,0-4.1,1.4-4.1,3.5c0,2.3,1.7,3.2,3.5,4c1.9,0.8,2.8,1.3,2.8,2.4s-1,1.8-2.5,1.8s-2.6-0.6-3.1-1
			l0,0l-0.9,1.6l0,0c0.5,0.4,2,1.2,4,1.2c2.8,0,4.6-1.5,4.6-3.8C49,17.6,47.3,16.8,45,15.8z"/>
		<path fill="#0092AC" d="M56.6,10.1c-3.3,0-5.8,2.8-5.8,6.6c0,1.9,0.5,3.6,1.5,4.8c1.1,1.3,2.6,2,4.5,2c2.4,0,3.9-1,4.4-1.3l0,0
			l-0.8-1.6l-0.1,0.1c-0.6,0.4-1.7,1.1-3.4,1.1c-2.4,0-3.9-1.8-3.9-5h8.6v-0.1c0-0.3,0-0.6,0-0.8C61.6,12.3,59.7,10.1,56.6,10.1z
			 M56.6,11.9c2.6,0,3,2.3,3,3.3h-6.5C53.5,13,54.7,11.9,56.6,11.9z"/>
		<path fill="#0092AC" d="M74.4,20.6V4.1h-2v7.1c-0.8-0.7-1.9-1.1-3.2-1.1c-3.3,0-5.7,2.8-5.7,6.7c0,4.1,2.1,6.7,5.3,6.7
			c1.4,0,2.7-0.6,3.6-1.7c0,0.5,0.2,1.1,0.2,1.3l0,0h2V23C74.6,22.5,74.4,21.4,74.4,20.6z M72.4,13v7c-0.8,1.1-2,1.7-3.2,1.7
			c-2.3,0-3.5-1.7-3.5-4.9c0-3,1.4-4.9,3.7-4.9C70.6,11.9,71.5,12.2,72.4,13z"/>
		<path fill="#0092AC" d="M82.8,21.4c-0.3,0-0.5,0-0.8,0c-1.2-0.1-1.8-0.4-1.8-1c0-0.4,0.3-0.7,0.8-1c0.5,0.1,0.9,0.2,1.4,0.2
			c3,0,5.1-1.9,5.1-4.7c0-1-0.3-2-0.9-2.8h1.9v-1.6h-4.2c-0.6-0.2-1.3-0.3-2-0.3c-3,0-5.1,1.9-5.1,4.7c0,1.7,0.8,3.1,2.2,3.9
			c-0.8,0.5-1.2,1.2-1.2,2c0,0.9,0.4,1.5,1.1,1.9c-1.4,0.8-2.1,2-2.1,3.3c0,2.3,1.9,3.6,5.1,3.6c1.7,0,3.2-0.4,4.4-1.1
			c1.2-0.8,1.9-1.9,1.9-3.1C88.7,21.6,85.4,21.5,82.8,21.4z M82.5,27.9c-2,0-3.2-0.8-3.2-2.2c0-1.1,0.6-2,1.7-2.6
			c0.6,0.1,1.2,0.1,1.8,0.1c0.2,0,0.4,0,0.6,0h0.1c1.5,0.1,3.1,0.2,3.1,2.1C86.7,26.8,85,27.9,82.5,27.9z M82.5,11.8
			c1.9,0,3,1.2,3,3s-1.2,3-3,3c-1.9,0-3-1.2-3-3C79.4,13,80.6,11.8,82.5,11.8z"/>
		<polygon fill="#0092AC" points="102.9,20 99.9,10.4 98,10.4 95,20 92.3,10.4 90.1,10.4 93.9,23.2 95.7,23.2 98.9,13.4 102,23.2 
			103.8,23.2 107.7,10.4 105.6,10.4 		"/>
		<circle fill="#0092AC" cx="111.1" cy="6.7" r="1.5"/>
		<rect x="110.1" y="10.4" fill="#0092AC" width="2.1" height="12.8"/>
		<path fill="#0092AC" d="M123.8,20.7L123.8,20.7c-0.4,0.3-1.5,1.1-3.1,1.1c-2.8,0-3.8-2.6-3.8-5c0-3.1,1.4-4.9,3.7-4.9
			c1.5,0,2.3,0.5,3,1l0,0l1-1.5l0,0c-0.4-0.3-1.6-1.3-3.9-1.3c-2.9,0-5.9,2.1-5.9,6.7c0,3.2,1.8,6.7,5.8,6.7c2.2,0,3.5-0.8,4-1.3
			l0,0L123.8,20.7z"/>
		<polygon fill="#0092AC" points="131.1,16.1 136.5,10.4 134,10.4 128.8,16.1 134.2,23.2 136.7,23.2 		"/>
		<g>
			<path fill="#0092AC" d="M144,19.3c-0.2-0.4-0.6-0.7-1-1c-0.8-0.5-1.8-0.5-2.6,0c-0.4,0.2-0.7,0.6-1,1c-0.2,0.4-0.4,0.9-0.4,1.3
				c0,0.5,0.1,0.9,0.4,1.3c0.2,0.4,0.6,0.7,1,1c0.4,0.2,0.8,0.4,1.3,0.4s0.9-0.1,1.3-0.4c0.4-0.2,0.7-0.6,1-1
				c0.2-0.4,0.4-0.8,0.4-1.3C144.3,20.1,144.2,19.7,144,19.3z M143.9,20.6c0,0.4-0.1,0.8-0.3,1.1c-0.2,0.3-0.5,0.6-0.8,0.8
				c-0.7,0.4-1.5,0.4-2.2,0c-0.3-0.2-0.6-0.5-0.8-0.8s-0.3-0.7-0.3-1.1s0.1-0.8,0.3-1.1c0.2-0.3,0.5-0.6,0.8-0.8
				c0.3-0.2,0.7-0.3,1.1-0.3c0.4,0,0.8,0.1,1.1,0.3c0.3,0.2,0.6,0.5,0.8,0.8S143.9,20.2,143.9,20.6z"/>
			<path fill="#0092AC" d="M142.7,21.3V21c0-0.2,0-0.3-0.1-0.3c0-0.1-0.1-0.1-0.2-0.2c0.1-0.1,0.2-0.1,0.2-0.2s0.1-0.2,0.1-0.3
				c0-0.1,0-0.3-0.1-0.4s-0.1-0.2-0.2-0.2c-0.1,0-0.3-0.1-0.5-0.1h-1v2.3h0.4v-0.9h0.5c0.1,0,0.2,0,0.3,0c0,0,0.1,0,0.1,0.1
				c0,0,0,0.1,0,0.2v0.3c0,0.1,0,0.2,0.1,0.4h0.4l-0.1-0.1C142.7,21.5,142.7,21.4,142.7,21.3z M141.3,19.8h0.6c0.2,0,0.3,0,0.3,0.1
				c0.1,0,0.1,0.1,0.1,0.2s0,0.2-0.1,0.3c-0.1,0-0.2,0.1-0.3,0.1h-0.5v-0.7H141.3z"/>
		</g>
		<rect x="126.7" y="4.1" fill="#0092AC" width="2" height="19.1"/>
	</g>
</g>
</svg>